Patient4_TMGait_0pt3_02_left_23_EMG.mot
version=1
nRows=19
nColumns=33
inDegrees=no
endheader
time	1LAddLong	2LGlutMax	3LGlutMed	4LIliopsoas	5LSemiMemb	6LBicFemLong	7LRecFem	8LVastMed	9LVastLat	10LGasMed	11LTibAnt	12lTibPost	13LPeroneusLong	14LSol	15LExtDigLong	16LFlexDigLong	17RAddLong	18RGlutMax	19RGlutMed	20RIliopsoas	21RSemiMemb	22RBicFemLong	23RRecFem	24RVastMed	25RVastLat	26RGasMed	27RTibAnt	28RTibPost	29RPeroneusLong	30RSol	31RExtDigLong	32RFlexDigLong
45.68	0.014038	0.13916	-0.084076	0.005035	0.049438	-0.19806	-0.090332	-0.001831	0.03067	-0.038757	0.001526	0.001984	0.053406	-0.092316	0.001984	-0.010986	0.007172	0.059357	0.064697	0.076904	0.025787	0.054321	0.066833	-0.030518	0.016327	0.001526	-0.065918	0.046234	0.093842	0.022888	-0.000305	0.000916
45.681	0.00824	0.096283	-0.031128	0.004578	0.033417	-0.065155	-0.013733	0.009003	-0.006561	-0.032196	0.011139	0.001526	0.058594	-0.004425	0.032654	-0.22644	0.010071	0.11261	0.015564	0.028076	-0.17761	0.1712	0.067139	0.004272	0.022125	-0.012817	-0.039368	-0.041962	-0.092773	0.26703	-0.000153	-0.007629
45.682	-0.004883	0.093384	0.057373	-0.00412	0.021057	0.015717	-0.029297	0.008698	-0.027466	0.06897	0.022888	-0.005341	0.009766	0.015564	0.025024	-0.59952	0.011749	-0.024109	-0.015564	-0.057068	-0.070343	0.24445	0.072937	-0.030365	0.023041	-0.025024	0.01236	-0.1622	-0.10162	0.14893	0.003662	-0.01236
45.683	-0.013885	0.093842	0.11093	0.006104	-0.011597	0.02533	-0.033722	-0.001678	-0.011749	0.010071	0.023651	-0.003967	-0.025177	0.022888	0.026245	0.14938	0.021515	-0.11704	0.1329	0.022736	0.052643	0.19898	0.059509	-0.029449	0.021515	-0.020599	0.032501	0.044098	-0.25345	0.092163	-0.003357	-0.021973
45.684	-0.011292	0.10544	0.037231	0.008698	-0.026855	0.072784	-0.012054	0.010071	-0.009766	0.017853	0.013123	-0.001984	0.032959	0.063324	0.020294	-0.013428	0.00885	-0.018921	0.16327	0.17441	0.032196	0.17014	0.037079	-0.020905	0.045471	-0.010223	-0.001984	0.003357	-0.29129	-0.29388	-0.002747	-0.002747
45.685	-0.019379	0.14435	-0.00946	0.011749	-0.030365	0.087738	0.036926	-0.003662	-0.029144	0.003662	0.000153	0.009155	0.081329	0.077209	0.005341	0.28351	0.014648	0.008698	0.063629	0.23422	0.065308	0.14358	0.024414	-0.047913	0.027008	0.000458	0.018463	0.017242	0.018616	-0.4007	-0.002899	-0.002594
45.686	-0.02655	0.23895	-0.07843	0.013733	-0.098419	0.12161	0.077057	0	-0.037842	0.021362	0.012054	-0.000458	0.070801	0.13306	0.012665	0.084991	0.032959	-0.059662	0.033264	0.13977	0.073853	0.033722	0.061493	-0.084991	0.027771	0.003662	0.007629	0.002747	-0.054626	-0.336	-0.001678	-0.014648
45.687	-0.019531	0.27786	-0.069885	0.008698	-0.12848	0.16876	0.017395	-0.004425	0.018158	0.034027	0.007324	0.00351	0.0383	0.094147	0.002136	-0.60577	0.024872	-0.096283	-0.056305	0.087891	0.025787	-0.020447	0.043793	-0.077667	0.046997	0.013123	-0.020447	-0.027313	0.69855	-0.1918	-0.003357	-0.01709
45.688	0.012207	0.31601	-0.064392	0.010834	-0.13275	-0.001984	-0.027771	-0.016174	0.046692	0.021667	-0.013123	0.009308	0.057983	0.027008	-0.005951	0.26627	0.003204	-0.077972	-0.059357	0.080261	-0.025635	0.015564	0.007324	-0.088043	0.033569	0.00824	-0.046234	-0.031738	0.6279	0.009766	-0.002594	-0.006866
45.689	0.049896	0.27252	-0.02121	0.018005	-0.014496	-0.19623	-0.007477	-0.015564	0.046387	0.020752	-0.016022	0.01236	0.055542	-0.15381	-0.011139	0.28809	-0.007629	-0.11551	0.10239	0.031281	-0.10071	0.018158	0.042572	-0.063477	0.027771	0.00412	-0.007172	-0.042725	0.073395	0.026703	-0.002289	-0.012512
45.69	0.056152	0.25253	-0.032349	0.010986	0.11185	-0.14496	-0.026855	-0.013275	0.040131	-0.019226	-0.005798	0.003052	0.036469	-0.16235	-0.010681	0.055695	-0.013123	-0.14694	0.12329	-0.02533	-0.13001	0.031128	0.023193	-0.030823	0.038147	0.00061	0.046234	-0.049744	-0.439	-0.040894	-0.007019	-0.008087
45.691	0.04303	0.27893	0.15259	0.001984	0.11627	-0.053253	-0.015564	-0.00946	0.054474	-0.042419	-0.001984	0.00351	0.038452	-0.058594	-0.034943	0.042725	-0.006561	-0.081482	0.14252	-0.1062	0.030365	0	0.017242	-0.017242	0.022888	0.000153	0.055847	-0.050201	-0.5336	0.068054	-0.002594	-0.003815
45.692	0.018158	0.28931	0.049133	-0.015564	0.079346	-0.048981	0.013428	0.00412	0.051575	-0.031281	0.009155	-0.003662	0.027924	0.020294	-0.027466	-0.060425	0.025177	-0.011902	0.1944	-0.097198	0.063782	-0.018768	0.030823	-0.016022	0.031128	0.007019	0.025635	-0.042267	0.33951	-0.051117	-0.004883	-0.010376
45.693	0.014801	0.2507	-0.035553	-0.005493	0.088196	-0.02243	0.052032	-0.005493	0.093994	-0.000763	0.027161	0.007172	-0.018311	0.032349	-0.025482	-0.11032	0.041504	-0.034332	0.17166	-0.057373	0.050964	0.008545	0.039673	-0.049286	0.036163	-0.002441	0.020599	-0.042725	0.71869	0.031281	0.000153	-0.007324
45.694	0.018921	0.24765	0.045929	0.003204	0.035248	-0.027771	0.093231	0.008087	0.069427	0.001068	-0.017548	-0.003204	0.035858	-0.004425	-0.009918	-0.1181	0.0383	0.020905	-0.00351	-0.011749	0.035858	-0.024872	0.044861	-0.015411	0.042419	-0.001221	0.031281	-0.031433	0.31448	0.10376	0.001373	-0.014343
45.695	-0.011902	0.24612	0.19119	0.003662	-0.007782	-0.070953	0.17029	0.009766	0.0354	-0.015869	-0.070496	0.001068	0.053558	-0.014648	0.0177	-0.10437	0.036469	-0.052795	-0.17654	-0.026398	0.033264	-0.040741	0.023804	-0.075378	0.029755	-0.004883	0.019379	-0.031433	0.16525	0.020599	0.007935	-0.016785
45.696	-0.02182	0.23834	0.075989	-0.006866	-0.041046	-0.085602	0.13977	0.031281	-0.00885	-0.004425	-0.083466	-0.000153	0.057831	-0.03952	0.018921	-0.043945	0.058136	-0.065002	-0.021515	-0.024414	0.002899	-0.10361	-0.014801	-0.088959	0.032196	0.000763	0.012054	-0.03479	0.16632	0.043945	-0.000305	-0.007935
45.697	-0.014954	0.23666	0.017395	-0.000916	-0.078583	-0.041351	0.079651	0.03067	0.053558	0.020447	-0.054321	0.000458	0.009766	-0.062714	-0.019531	-0.023499	0.03006	-0.076904	-0.040436	0.077209	-0.025482	-0.14236	-0.081787	-0.046387	0.034332	-0.006561	0.035248	-0.03067	0.018768	0.13596	-0.001526	-0.015106
45.698	-0.006714	0.21072	0.069427	0.004425	-0.079498	0.000305	0.028381	0.020752	0.11444	0.022278	-0.003815	0.017548	0.000916	-0.03891	0.000763	-0.03952	0.016022	0.012054	0.014954	0.092621	-0.06134	-0.17334	-0.080414	-0.038147	0.036926	-0.003052	0.043945	-0.025787	-0.06134	0.12543	-0.001678	-0.013733
